<svg xmlns="http://www.w3.org/2000/svg" xmlns:xlink="http://www.w3.org/1999/xlink" xmlns:inkscape="http://www.inkscape.org/namespaces/inkscape" version="1.1" width="316" height="315" viewBox="0 0 316 315">
<defs>
<path id="font_1_3" d="M.47399903 .40820313C.44198609 .40219117 .42999269 .3781891 .42999269 .3591919 .42999269 .33518983 .44898988 .3271942 .46299745 .3271942 .49299623 .3271942 .5139923 .3531952 .5139923 .380188 .5139923 .4223938 .46598817 .44140626 .42399598 .44140626 .36299134 .44140626 .32899476 .38119508 .31999208 .36219789 .29699708 .4373932 .23498535 .44140626 .21699524 .44140626 .114990238 .44140626 .06098938 .31021119 .06098938 .28822328 .06098938 .28422547 .06498718 .27923585 .07199097 .27923585 .07998657 .27923585 .08198547 .28523255 .083999637 .2892151 .117996219 .40019227 .18499756 .42140199 .21398926 .42140199 .25898744 .42140199 .2679901 .37919618 .2679901 .3551941 .2679901 .33319093 .2619934 .31021119 .25 .26223756L.21598816 .12535095C.20098877 .06535339 .17199707 .010223389 .11898804 .010223389 .11399841 .010223389 .08898926 .010223389 .067993167 .023330689 .10398865 .03036499 .11199951 .06036377 .11199951 .07235718 .11199951 .09236145 .09700012 .10435486 .07798767 .10435486 .053985597 .10435486 .027999878 .083358768 .027999878 .051361085 .027999878 .009231567 .07499695-.009765625 .117996219-.009765625 .1659851-.009765625 .19999695 .028366089 .22099304 .069366458 .23699951 .010223389 .2869873-.009765625 .32398988-.009765625 .42599488-.009765625 .47999574 .12135315 .47999574 .1433258 .47999574 .14833069 .47599793 .15232849 .46998597 .15232849 .46099855 .15232849 .45999146 .14732361 .45700074 .139328 .42999269 .051361085 .37199403 .010223389 .32699586 .010223389 .2919922 .010223389 .272995 .036361696 .272995 .07736206 .272995 .099365238 .2769928 .115356449 .29299928 .18130493L.32798768 .3171997C.34298707 .37719728 .3769989 .42140199 .4229889 .42140199 .4249878 .42140199 .45298768 .42140199 .47399903 .40820313Z"/>
<path id="font_1_4" d="M.2630005-.11172485C.23599243-.14982605 .19699097-.18411255 .147995-.18411255 .13598633-.18411255 .08799744-.18209839 .07299805-.13572693 .07598877-.13671875 .08099365-.13671875 .08299255-.13671875 .11299133-.13671875 .1329956-.11073303 .1329956-.08772278 .1329956-.06472778 .11399841-.056732179 .09899902-.056732179 .08299255-.056732179 .04798889-.068725589 .04798889-.11772156 .04798889-.16899109 .09098816-.20410156 .147995-.20410156 .24798584-.20410156 .34899903-.11172485 .3769989-.00077819827L.47499085 .38868714C.47599793 .39367677 .47799684 .39967347 .47799684 .4056549 .47799684 .4206543 .46598817 .43066407 .45098878 .43066407 .44198609 .43066407 .42099 .426651 .41299439 .39666749L.33898927 .10308838C.33399964 .085113529 .33399964 .08312988 .32598878 .072143558 .30599977 .04423523 .272995 .010223389 .22499085 .010223389 .16899109 .010223389 .1639862 .06524658 .1639862 .09225464 .1639862 .14929199 .19099427 .22631836 .21798706 .2983551 .22898865 .32736207 .23498535 .34136964 .23498535 .3613739 .23498535 .4033966 .20498657 .44140626 .1559906 .44140626 .06399536 .44140626 .026992798 .29634095 .026992798 .28834535 .026992798 .28434754 .0309906 .27934266 .037994386 .27934266 .04699707 .27934266 .04798889 .28334046 .051986696 .29734803 .07598877 .38137818 .11399841 .42140199 .15299988 .42140199 .1619873 .42140199 .1789856 .42140199 .1789856 .38838197 .1789856 .36238099 .16799927 .33335877 .15299988 .29534913 .10398865 .16429138 .10398865 .13127136 .10398865 .10726929 .10398865 .01222229 .17199707-.009765625 .22200012-.009765625 .25099183-.009765625 .2869873-.00077819827 .32199098 .036239625L.32299806 .035232545C.30799867-.023757935 .2979889-.06272888 .2630005-.11172485Z"/>
<path id="font_1_1" d="M.16999817 .1111145C.1349945 .05203247 .100997928 .03199768 .052993776 .0289917 .041992189 .027999878 .033996583 .027999878 .033996583 .009994507 .033996583 .0039978029 .038986207 0 .04598999 0 .06399536 0 .10899353 .0019989014 .1269989 .0019989014 .1559906 .0019989014 .18798828 0 .21598816 0 .22200012 0 .23399353 0 .23399353 .018997193 .23399353 .027999878 .22599793 .0289917 .21998596 .0289917 .19699097 .0309906 .17799378 .039001466 .17799378 .06304932 .17799378 .07707214 .18399048 .08808899 .19699097 .11012268L.272995 .23632813H.5279999C.5289917 .22731018 .5289917 .21929932 .5299988 .21028137 .5329895 .18423462 .54499819 .080078128 .54499819 .061050416 .54499819 .0309906 .49398805 .0289917 .47799684 .0289917 .46699525 .0289917 .45599366 .0289917 .45599366 .010986328 .45599366 0 .46499635 0 .47099305 0 .48799134 0 .5079956 .0019989014 .5249939 .0019989014H.58200076C.6429901 .0019989014 .68699648 0 .6879883 0 .69499209 0 .70599368 0 .70599368 .018997193 .70599368 .0289917 .69699099 .0289917 .6819916 .0289917 .6269989 .0289917 .6259918 .038009645 .6230011 .0680542L.56199648 .691864C.55999758 .711853 .55599978 .7138672 .54499819 .7138672 .5349884 .7138672 .5289917 .711853 .519989 .69685366L.16999817 .1111145M.2899933 .26531983 .4909973 .6009674 .5249939 .26531983H.2899933Z"/>
<path id="font_1_2" d="M.15699768 .07395935C.147995 .038986207 .1459961 .0289917 .07598877 .0289917 .056991579 .0289917 .04699707 .0289917 .04699707 .010986328 .04699707 0 .052993776 0 .07299805 0H.3899994C.59199526 0 .78900149 .20887757 .78900149 .43174745 .78900149 .5756531 .7029877 .6826172 .55999758 .6826172H.23899842C.21998596 .6826172 .21099854 .6826172 .21099854 .66360476 .21099854 .6536102 .21998596 .6536102 .23498535 .6536102 .29599 .6536102 .29599 .6456146 .29599 .6346283 .29599 .6326294 .29599 .6266327 .2919922 .6116333L.15699768 .07395935M.36799623 .6146393C.3769989 .6516113 .3809967 .6536102 .41999818 .6536102H.5299988C.6239929 .6536102 .70999148 .6026459 .70999148 .46472169 .70999148 .4147644 .6899872 .24085999 .59298709 .13093567 .5649872 .09794617 .4889984 .0289917 .37399293 .0289917H.2599945C.24598694 .0289917 .24398804 .0289917 .23799134 .02999878 .22698975 .0309906 .22599793 .032989503 .22599793 .040985109 .22599793 .047973634 .22799683 .053970338 .22999573 .06297302L.36799623 .6146393Z"/>
<path id="font_2_28" d="M.5529938 .023986817C.5529938 .04699707 .5399933 .04699707 .5269928 .04699707 .46598817 .04798889 .46598817 .06100464 .46598817 .083999637V.29907228C.46598817 .3881073 .394989 .453125 .24598694 .453125 .18899536 .453125 .066986087 .44911195 .066986087 .36109925 .066986087 .3170929 .101989749 .29808045 .1289978 .29808045 .1599884 .29808045 .19198609 .3190918 .19198609 .36109925 .19198609 .39111329 .17298889 .40811158 .16999817 .41011048 .19799805 .41612245 .22999573 .41711427 .24198914 .41711427 .31698609 .41711427 .35198976 .3751068 .35198976 .29907228V.26506043C.2809906 .2620697 .026992798 .25306703 .026992798 .10801697 .026992798 .012130737 .15098572-.005859375 .21998596-.005859375 .2999878-.005859375 .34700013 .035125734 .36898805 .07713318 .36898805 .04598999 .36898805 0 .47299195 0H.5209961C.54100039 0 .5529938 0 .5529938 .023986817M.35198976 .13899231C.35198976 .043151857 .2599945 .030136109 .23498535 .030136109 .18399048 .030136109 .14399719 .06517029 .14399719 .10922241 .14399719 .21734619 .3019867 .23136902 .35198976 .234375V.13899231Z"/>
<path id="font_2_35" d="M.59999087 .22319031C.59999087 .3561859 .5059967 .4501953 .36099244 .4501953 .28799439 .4501953 .23799134 .42118836 .21398926 .40118409V.69433596L.036987306 .6863251V.639328C.09899902 .639328 .10598755 .639328 .10598755 .600296V.00018310547H.15299988C.16899109 .019180298 .18598938 .03718567 .20199585 .05618286 .20999146 .04814148 .25898744-.005859375 .34799195-.005859375 .49699403-.005859375 .59999087 .08413696 .59999087 .22315979V.22319031M.47200013 .22315979C.47200013 .17614746 .47200013 .12113953 .44599916 .08213806 .4169922 .041137697 .37098695 .030136109 .33898927 .030136109 .2689972 .030136109 .22999573 .08413696 .21998596 .09913635V.35017396C.24699402 .3851776 .29499818 .41418458 .34999085 .41418458 .47200013 .41418458 .47200013 .2931671 .47200013 .22315979Z"/>
<path id="font_3_34" d="M.651001 .18289185C.651001 .26983644 .56900027 .34480287 .45799256 .35679627 .5549927 .3757782 .6239929 .43974305 .6239929 .51368716 .6239929 .6006317 .5319977 .6826172 .4019928 .6826172H.035995485V.6516113H.05999756C.13699341 .6516113 .13899231 .64060977 .13899231 .6046295V.07795715C.13899231 .041992189 .13699341 .0309906 .05999756 .0309906H.035995485V0H.42799378C.5609894-.0002593994 .651001 .08874512 .651001 .18273926V.18289185M.5269928 .5136719C.5269928 .44970704 .47799684 .36573792 .36698915 .36573792H.22200012V.6116333C.22200012 .64460757 .22399903 .6516113 .2709961 .6516113H.394989C.49198915 .65174868 .5269928 .56674197 .5269928 .51374819V.5136719M.5509949 .18386841C.5509949 .1129303 .49899293 .0309906 .3959961 .0309906H.2709961C.22399903 .0309906 .22200012 .037994386 .22200012 .07095337V.34375H.4099884C.5089874 .34399415 .5509949 .25099183 .5509949 .18399048V.18386841Z"/>
<path id="font_3_42" d="M.6649933 .23271179C.6649933 .24272156 .6649933 .24972534 .6519928 .24972534 .6409912 .24972534 .6409912 .24372864 .6399994 .23371887 .6319885 .09059143 .5249939 .008529663 .41600038 .008529663 .35499574 .008529663 .15899658 .042556764 .15899658 .34080506 .15899658 .64004519 .35398866 .67407229 .4149933 .67407229 .5239868 .67407229 .61299136 .58299258 .6329956 .4368744 .6349945 .42286683 .6349945 .41986085 .6489868 .41986085 .6649933 .41986085 .6649933 .42286683 .6649933 .44387818V.68107607C.6649933 .69807437 .6649933 .7050781 .6539917 .7050781 .6499939 .7050781 .6459961 .7050781 .6380005 .69306948L.58799746 .61901858C.5509949 .6550598 .5 .7050781 .4039917 .7050781 .21699524 .7050781 .055999757 .5459595 .055999757 .34179688 .055999757 .1346283 .21798706-.022460938 .4039917-.022460938 .5669861-.022460938 .6649933 .116622928 .6649933 .23271179Z"/>
</defs>
<path transform="matrix(1.00006,0,0,-1.00009,58.79238,256.94068)" stroke-width=".3985" stroke-linecap="butt" stroke-miterlimit="10" stroke-linejoin="miter" fill="none" stroke="#a6a6a6" d="M-56.69362-56.69362H255.12128M-56.69362-28.3468H255.12128M-56.69362 0H255.12128M-56.69362 28.3468H255.12128M-56.69362 56.69362H255.12128M-56.69362 85.04042H255.12128M-56.69362 113.38724H255.12128M-56.69362 141.73404H255.12128M-56.69362 170.08086H255.12128M-56.69362 198.42766H255.12128M-56.69362 226.77448H255.12128M-56.69362 255.11133H255.12128M-56.69362-56.69362V255.12128M-28.3468-56.69362V255.12128M0-56.69362V255.12128M28.3468-56.69362V255.12128M56.69362-56.69362V255.12128M85.04042-56.69362V255.12128M113.38724-56.69362V255.12128M141.73404-56.69362V255.12128M170.08086-56.69362V255.12128M198.42766-56.69362V255.12128M226.77448-56.69362V255.12128M255.11133-56.69362V255.12128M255.12128 255.12128"/>
<path transform="matrix(1.00006,0,0,-1.00009,58.79238,256.94068)" stroke-width="1.19553" stroke-linecap="butt" stroke-miterlimit="10" stroke-linejoin="miter" fill="none" stroke="#ff0000" d="M-28.3468 0H226.77448"/>
<use data-text="x" xlink:href="#font_1_3" transform="matrix(11.955917,0,0,-11.956276,289.4992,259.5149)"/>
<path transform="matrix(1.00006,0,0,-1.00009,58.79238,256.94068)" stroke-width="1.19553" stroke-linecap="butt" stroke-miterlimit="10" stroke-linejoin="miter" fill="none" stroke="#ff0000" d="M0-56.69362V226.77448"/>
<use data-text="y" xlink:href="#font_1_4" transform="matrix(11.955917,0,0,-11.956276,55.724199,23.90271)"/>
<path transform="matrix(1.00006,0,0,-1.00009,58.79238,256.94068)" stroke-width=".3985" stroke-linecap="butt" stroke-miterlimit="10" stroke-linejoin="miter" fill="none" stroke="#ff0000" d="M-28.3468 0H212.62743"/>
<path transform="matrix(1.00006,0,0,-1.00009,271.43257,256.94068)" d="M13.32552 0C11.6891 .39218 4.49583 2.61453 0 5.03296V-5.03296C4.49583-2.61453 11.6891-.39218 13.32552 0Z" fill="#ff0000"/>
<path transform="matrix(1.00006,0,0,-1.00009,271.43257,256.94068)" stroke-width=".3985" stroke-linecap="butt" stroke-miterlimit="10" stroke-linejoin="miter" fill="none" stroke="#ff0000" d="M13.32552 0C11.6891 .39218 4.49583 2.61453 0 5.03296V-5.03296C4.49583-2.61453 11.6891-.39218 13.32552 0Z"/>
<path transform="matrix(1.00006,0,0,-1.00009,58.79238,256.94068)" stroke-width=".3985" stroke-linecap="butt" stroke-miterlimit="10" stroke-linejoin="miter" fill="none" stroke="#ff0000" d="M0-56.69362V212.62743"/>
<path transform="matrix(0,-1.00009,-1.00006,-0,58.79238,44.294115)" d="M13.32552 0C11.6891 .39218 4.49583 2.61453 0 5.03296V-5.03296C4.49583-2.61453 11.6891-.39218 13.32552 0Z" fill="#ff0000"/>
<path transform="matrix(0,-1.00009,-1.00006,-0,58.79238,44.294115)" stroke-width=".3985" stroke-linecap="butt" stroke-miterlimit="10" stroke-linejoin="miter" fill="none" stroke="#ff0000" d="M13.32552 0C11.6891 .39218 4.49583 2.61453 0 5.03296V-5.03296C4.49583-2.61453 11.6891-.39218 13.32552 0Z"/>
<use data-text="A" xlink:href="#font_1_1" transform="matrix(11.955917,0,0,-11.956276,74.24831,204.32694)"/>
<use data-text="D" xlink:href="#font_1_2" transform="matrix(11.955917,0,0,-11.956276,201.18192,147.62885)"/>
<path transform="matrix(1.00006,0,0,-1.00009,58.79238,256.94068)" stroke-width=".3985" stroke-linecap="butt" stroke-miterlimit="10" stroke-linejoin="miter" fill="none" stroke="#000000" d="M28.3468 56.69362 106.76521 135.11203"/>
<path transform="matrix(.70714238,-.70716366,-.70714238,-.70716366,165.56398,121.8165)" d="M8.54343 0C7.49426 .25244 2.88243 1.68294 0 3.23965V-3.23965C2.88243-1.68294 7.49426-.25244 8.54343 0Z"/>
<path transform="matrix(.70714238,-.70716366,-.70714238,-.70716366,165.56398,121.8165)" stroke-width=".3985" stroke-linecap="butt" stroke-miterlimit="10" stroke-linejoin="miter" fill="none" stroke="#000000" d="M8.54343 0C7.49426 .25244 2.88243 1.68294 0 3.23965V-3.23965C2.88243-1.68294 7.49426-.25244 8.54343 0Z"/>
<path transform="matrix(1.00006,0,0,-1.00009,58.79238,256.94068)" stroke-width=".3985" stroke-linecap="butt" stroke-miterlimit="10" stroke-linejoin="miter" fill="none" stroke="#ff0000" d="M56.69362 28.3468 135.11203 106.76521"/>
<path transform="matrix(.70714238,-.70716366,-.70714238,-.70716366,193.9125,150.16587)" d="M8.54343 0C7.49426 .25244 2.88243 1.68294 0 3.23965V-3.23965C2.88243-1.68294 7.49426-.25244 8.54343 0Z" fill="#ff0000"/>
<path transform="matrix(.70714238,-.70716366,-.70714238,-.70716366,193.9125,150.16587)" stroke-width=".3985" stroke-linecap="butt" stroke-miterlimit="10" stroke-linejoin="miter" fill="none" stroke="#ff0000" d="M8.54343 0C7.49426 .25244 2.88243 1.68294 0 3.23965V-3.23965C2.88243-1.68294 7.49426-.25244 8.54343 0Z"/>
<use data-text="a" xlink:href="#font_2_28" transform="matrix(9.963197,0,0,-9.963496,126.24342,151.44019)"/>
<use data-text="b" xlink:href="#font_2_35" transform="matrix(9.963197,0,0,-9.963496,148.12574,186.65935)"/>
<path transform="matrix(1.00006,0,0,-1.00009,58.79238,256.94068)" stroke-width="1.19553" stroke-linecap="butt" stroke-miterlimit="10" stroke-linejoin="miter" fill="none" stroke="#000000" d="M28.3468 56.69362 113.38724 141.73404"/>
<use data-text="B" xlink:href="#font_3_34" transform="matrix(9.963197,0,0,-9.963496,176.10541,118.59622)"/>
<path transform="matrix(1.00006,0,0,-1.00009,58.79238,256.94068)" stroke-width="1.19553" stroke-linecap="butt" stroke-miterlimit="10" stroke-linejoin="miter" fill="none" stroke="#ff0000" d="M141.73404 113.38724 56.69362 28.3468"/>
<use data-text="C" xlink:href="#font_3_42" transform="matrix(9.963197,0,0,-9.963496,111.89256,239.5341)" fill="#ff0000"/>
</svg>
