<svg xmlns="http://www.w3.org/2000/svg" xmlns:xlink="http://www.w3.org/1999/xlink" xmlns:inkscape="http://www.inkscape.org/namespaces/inkscape" version="1.1" width="96" height="117" viewBox="0 0 96 117">
<defs>
<path id="font_1_2" d="M.3659973 .614624C.375 .6516113 .3789978 .6536102 .41799928 .6536102H.5479889C.6609955 .6536102 .6609955 .5576477 .6609955 .548645 .6609955 .46768189 .5799866 .36471559 .44799806 .36471559H.3039856L.3659973 .614624M.5349884 .35671998C.6439972 .37670899 .7429962 .4526825 .7429962 .5446472 .7429962 .6226196 .673996 .6826172 .5609894 .6826172H.23999024C.22099304 .6826172 .21199036 .6826172 .21199036 .66360476 .21199036 .6536102 .22099304 .6536102 .23599243 .6536102 .29699708 .6536102 .29699708 .6456146 .29699708 .63461306 .29699708 .63261416 .29699708 .62661746 .29299928 .61161807L.1579895 .07395935C.14898682 .038986207 .14698792 .0289917 .07699585 .0289917 .057998659 .0289917 .04798889 .0289917 .04798889 .010986328 .04798889 0 .053985597 0 .07398987 0H.4169922C.56999209 0 .6879883 .11592102 .6879883 .2168274 .6879883 .2987671 .6159973 .34872438 .5349884 .35671998M.3929901 .0289917H.2579956C.24398804 .0289917 .24198914 .0289917 .23599243 .02999878 .22499085 .0309906 .22399903 .032989503 .22399903 .040985109 .22399903 .047973634 .22599793 .053970338 .22799683 .06295776L.2979889 .34472657H.48599244C.60398867 .34472657 .60398867 .2348175 .60398867 .2268219 .60398867 .13090515 .5169983 .0289917 .3929901 .0289917Z"/>
<path id="font_1_1" d="M.16999817 .1111145C.1349945 .05203247 .100997928 .03199768 .052993776 .0289917 .041992189 .027999878 .033996583 .027999878 .033996583 .009994507 .033996583 .0039978029 .038986207 0 .04598999 0 .06399536 0 .10899353 .0019989014 .1269989 .0019989014 .1559906 .0019989014 .18798828 0 .21598816 0 .22200012 0 .23399353 0 .23399353 .018997193 .23399353 .027999878 .22599793 .0289917 .21998596 .0289917 .19699097 .0309906 .17799378 .039001466 .17799378 .06304932 .17799378 .07707214 .18399048 .08808899 .19699097 .11012268L.272995 .23632813H.5279999C.5289917 .22731018 .5289917 .21929932 .5299988 .21028137 .5329895 .18423462 .54499819 .080078128 .54499819 .061050416 .54499819 .0309906 .49398805 .0289917 .47799684 .0289917 .46699525 .0289917 .45599366 .0289917 .45599366 .010986328 .45599366 0 .46499635 0 .47099305 0 .48799134 0 .5079956 .0019989014 .5249939 .0019989014H.58200076C.6429901 .0019989014 .68699648 0 .6879883 0 .69499209 0 .70599368 0 .70599368 .018997193 .70599368 .0289917 .69699099 .0289917 .6819916 .0289917 .6269989 .0289917 .6259918 .038009645 .6230011 .0680542L.56199648 .691864C.55999758 .711853 .55599978 .7138672 .54499819 .7138672 .5349884 .7138672 .5289917 .711853 .519989 .69685366L.16999817 .1111145M.2899933 .26531983 .4909973 .6009674 .5249939 .26531983H.2899933Z"/>
<path id="font_1_3" d="M.30099488 .119277957C.29599 .102264408 .29599 .1002655 .28199769 .08125305 .2599945 .053237916 .21598816 .010223389 .16899109 .010223389 .12799073 .010223389 .10499573 .04724121 .10499573 .10626221 .10499573 .1612854 .13598633 .2733307 .15499878 .3153534 .18899536 .38539125 .23599243 .42140199 .2749939 .42140199 .34098817 .42140199 .35398866 .33937074 .35398866 .33135987 .35398866 .33036805 .35099793 .3173523 .34999085 .3153534L.30099488 .119277957M.36499024 .37538148C.35398866 .4013977 .32699586 .44140626 .2749939 .44140626 .1619873 .44140626 .039993287 .29534913 .039993287 .14727783 .039993287 .04824829 .09799194-.009765625 .1659851-.009765625 .22099304-.009765625 .2679901 .033233644 .29599 .06625366 .30599977 .007232666 .35299684-.009765625 .3829956-.009765625 .41299439-.009765625 .43699647 .008224487 .45498658 .04423523 .47099305 .07824707 .4850006 .13926697 .4850006 .14326477 .4850006 .14826966 .48098756 .15226746 .47499085 .15226746 .46598817 .15226746 .46499635 .14726258 .46099855 .13226319 .44599916 .07324219 .4269867 .010223389 .38598634 .010223389 .35699464 .010223389 .35499574 .036239625 .35499574 .056243898 .35499574 .07923889 .35798646 .09025574 .36698915 .1292572 .37399293 .15426636 .3789978 .17626953 .3869934 .20527649 .42399598 .35533143 .43299867 .39134217 .43299867 .39733888 .43299867 .41133119 .42199708 .42233277 .40699769 .42233277 .375 .42233277 .36698915 .3873291 .36499024 .3753357V.37538148Z"/>
<path id="font_2_1" d="M.6589966 .23046875C.6759949 .23046875 .69400027 .23046875 .69400027 .25045777 .69400027 .27046205 .6759949 .27046205 .6589966 .27046205H.117996219C.100997928 .27046205 .08299255 .27046205 .08299255 .25045777 .08299255 .23046875 .100997928 .23046875 .117996219 .23046875H.6589966Z"/>
</defs>
<use data-text="B" xlink:href="#font_1_2" transform="matrix(11.9552,0,0,-11.9552,1.2179985,20.255005)"/>
<use data-text="A" xlink:href="#font_1_1" transform="matrix(11.9552,0,0,-11.9552,86.619,105.296009)"/>
<use data-text="a" xlink:href="#font_1_3" transform="matrix(11.9552,0,0,-11.9552,31.239998,75.438)"/>
<use data-text="&#x2212;" xlink:href="#font_2_1" transform="matrix(11.9552,0,0,-11.9552,46.433004,39.002008)" fill="#ff0000"/>
<use data-text="a" xlink:href="#font_1_3" transform="matrix(11.9552,0,0,-11.9552,55.731004,39.002008)" fill="#ff0000"/>
<path transform="matrix(1,0,0,-1,-22.381,143.731)" stroke-width=".3985" stroke-linecap="butt" stroke-miterlimit="10" stroke-linejoin="miter" fill="none" stroke="#000000" d="M113.38724 28.3468 34.96881 106.76521"/>
<path transform="matrix(-.7071,-.7071,-.7071,.7071,12.58783,36.965806)" d="M8.54343 0C7.49426 .25244 2.88243 1.68294 0 3.23965V-3.23965C2.88243-1.68294 7.49426-.25244 8.54343 0Z"/>
<path transform="matrix(-.7071,-.7071,-.7071,.7071,12.58783,36.965806)" stroke-width=".3985" stroke-linecap="butt" stroke-miterlimit="10" stroke-linejoin="miter" fill="none" stroke="#000000" d="M8.54343 0C7.49426 .25244 2.88243 1.68294 0 3.23965V-3.23965C2.88243-1.68294 7.49426-.25244 8.54343 0Z"/>
<path transform="matrix(1,0,0,-1,-22.381,143.731)" stroke-width=".3985" stroke-linecap="butt" stroke-miterlimit="10" stroke-linejoin="miter" fill="none" stroke="#ff0000" d="M28.3468 141.73404 106.76521 63.31563"/>
<path transform="matrix(.7071,.7071,.7071,-.7071,84.3842,80.41536)" d="M8.54343 0C7.49426 .25244 2.88243 1.68294 0 3.23965V-3.23965C2.88243-1.68294 7.49426-.25244 8.54343 0Z" fill="#ff0000"/>
<path transform="matrix(.7071,.7071,.7071,-.7071,84.3842,80.41536)" stroke-width=".3985" stroke-linecap="butt" stroke-miterlimit="10" stroke-linejoin="miter" fill="none" stroke="#ff0000" d="M8.54343 0C7.49426 .25244 2.88243 1.68294 0 3.23965V-3.23965C2.88243-1.68294 7.49426-.25244 8.54343 0Z"/>
<path transform="matrix(1,0,0,-1,-22.381,143.731)" stroke-width=".79701" stroke-linecap="butt" stroke-miterlimit="10" stroke-linejoin="miter" fill="none" stroke="#000000" d="M113.38724 28.3468 28.3468 113.38724"/>
<path transform="matrix(1,0,0,-1,-22.381,143.731)" stroke-width=".79701" stroke-linecap="butt" stroke-miterlimit="10" stroke-linejoin="miter" fill="none" stroke="#ff0000" d="M113.38724 56.69362 28.3468 141.73404"/>
</svg>
