<svg xmlns="http://www.w3.org/2000/svg" xmlns:xlink="http://www.w3.org/1999/xlink" xmlns:inkscape="http://www.inkscape.org/namespaces/inkscape" version="1.1" width="316" height="315" viewBox="0 0 316 315">
<defs>
<path id="font_1_3" d="M.47399903 .40820313C.44198609 .40219117 .42999269 .3781891 .42999269 .3591919 .42999269 .33518983 .44898988 .3271942 .46299745 .3271942 .49299623 .3271942 .5139923 .3531952 .5139923 .380188 .5139923 .4223938 .46598817 .44140626 .42399598 .44140626 .36299134 .44140626 .32899476 .38119508 .31999208 .36219789 .29699708 .4373932 .23498535 .44140626 .21699524 .44140626 .114990238 .44140626 .06098938 .31021119 .06098938 .28822328 .06098938 .28422547 .06498718 .27923585 .07199097 .27923585 .07998657 .27923585 .08198547 .28523255 .083999637 .2892151 .117996219 .40019227 .18499756 .42140199 .21398926 .42140199 .25898744 .42140199 .2679901 .37919618 .2679901 .3551941 .2679901 .33319093 .2619934 .31021119 .25 .26223756L.21598816 .12535095C.20098877 .06535339 .17199707 .010223389 .11898804 .010223389 .11399841 .010223389 .08898926 .010223389 .067993167 .023330689 .10398865 .03036499 .11199951 .06036377 .11199951 .07235718 .11199951 .09236145 .09700012 .10435486 .07798767 .10435486 .053985597 .10435486 .027999878 .083358768 .027999878 .051361085 .027999878 .009231567 .07499695-.009765625 .117996219-.009765625 .1659851-.009765625 .19999695 .028366089 .22099304 .069366458 .23699951 .010223389 .2869873-.009765625 .32398988-.009765625 .42599488-.009765625 .47999574 .12135315 .47999574 .1433258 .47999574 .14833069 .47599793 .15232849 .46998597 .15232849 .46099855 .15232849 .45999146 .14732361 .45700074 .139328 .42999269 .051361085 .37199403 .010223389 .32699586 .010223389 .2919922 .010223389 .272995 .036361696 .272995 .07736206 .272995 .099365238 .2769928 .115356449 .29299928 .18130493L.32798768 .3171997C.34298707 .37719728 .3769989 .42140199 .4229889 .42140199 .4249878 .42140199 .45298768 .42140199 .47399903 .40820313Z"/>
<path id="font_1_4" d="M.2630005-.11172485C.23599243-.14982605 .19699097-.18411255 .147995-.18411255 .13598633-.18411255 .08799744-.18209839 .07299805-.13572693 .07598877-.13671875 .08099365-.13671875 .08299255-.13671875 .11299133-.13671875 .1329956-.11073303 .1329956-.08772278 .1329956-.06472778 .11399841-.056732179 .09899902-.056732179 .08299255-.056732179 .04798889-.068725589 .04798889-.11772156 .04798889-.16899109 .09098816-.20410156 .147995-.20410156 .24798584-.20410156 .34899903-.11172485 .3769989-.00077819827L.47499085 .38868714C.47599793 .39367677 .47799684 .39967347 .47799684 .4056549 .47799684 .4206543 .46598817 .43066407 .45098878 .43066407 .44198609 .43066407 .42099 .426651 .41299439 .39666749L.33898927 .10308838C.33399964 .085113529 .33399964 .08312988 .32598878 .072143558 .30599977 .04423523 .272995 .010223389 .22499085 .010223389 .16899109 .010223389 .1639862 .06524658 .1639862 .09225464 .1639862 .14929199 .19099427 .22631836 .21798706 .2983551 .22898865 .32736207 .23498535 .34136964 .23498535 .3613739 .23498535 .4033966 .20498657 .44140626 .1559906 .44140626 .06399536 .44140626 .026992798 .29634095 .026992798 .28834535 .026992798 .28434754 .0309906 .27934266 .037994386 .27934266 .04699707 .27934266 .04798889 .28334046 .051986696 .29734803 .07598877 .38137818 .11399841 .42140199 .15299988 .42140199 .1619873 .42140199 .1789856 .42140199 .1789856 .38838197 .1789856 .36238099 .16799927 .33335877 .15299988 .29534913 .10398865 .16429138 .10398865 .13127136 .10398865 .10726929 .10398865 .01222229 .17199707-.009765625 .22200012-.009765625 .25099183-.009765625 .2869873-.00077819827 .32199098 .036239625L.32299806 .035232545C.30799867-.023757935 .2979889-.06272888 .2630005-.11172485Z"/>
<path id="font_1_1" d="M.16999817 .1111145C.1349945 .05203247 .100997928 .03199768 .052993776 .0289917 .041992189 .027999878 .033996583 .027999878 .033996583 .009994507 .033996583 .0039978029 .038986207 0 .04598999 0 .06399536 0 .10899353 .0019989014 .1269989 .0019989014 .1559906 .0019989014 .18798828 0 .21598816 0 .22200012 0 .23399353 0 .23399353 .018997193 .23399353 .027999878 .22599793 .0289917 .21998596 .0289917 .19699097 .0309906 .17799378 .039001466 .17799378 .06304932 .17799378 .07707214 .18399048 .08808899 .19699097 .11012268L.272995 .23632813H.5279999C.5289917 .22731018 .5289917 .21929932 .5299988 .21028137 .5329895 .18423462 .54499819 .080078128 .54499819 .061050416 .54499819 .0309906 .49398805 .0289917 .47799684 .0289917 .46699525 .0289917 .45599366 .0289917 .45599366 .010986328 .45599366 0 .46499635 0 .47099305 0 .48799134 0 .5079956 .0019989014 .5249939 .0019989014H.58200076C.6429901 .0019989014 .68699648 0 .6879883 0 .69499209 0 .70599368 0 .70599368 .018997193 .70599368 .0289917 .69699099 .0289917 .6819916 .0289917 .6269989 .0289917 .6259918 .038009645 .6230011 .0680542L.56199648 .691864C.55999758 .711853 .55599978 .7138672 .54499819 .7138672 .5349884 .7138672 .5289917 .711853 .519989 .69685366L.16999817 .1111145M.2899933 .26531983 .4909973 .6009674 .5249939 .26531983H.2899933Z"/>
<path id="font_1_2" d="M.746994 .6950989C.746994 .70410159 .73999026 .70410159 .73799136 .70410159 .73599246 .70410159 .7319946 .70410159 .723999 .6940918L.6549988 .6100311C.6199951 .6700897 .5649872 .70410159 .48999024 .70410159 .27398683 .70410159 .049987794 .48492433 .049987794 .24972534 .049987794 .08258057 .16699219-.021484375 .31298829-.021484375 .3929901-.021484375 .46299745 .012512207 .5209961 .061553956 .60798647 .13461304 .6339874 .23170471 .6339874 .23971558 .6339874 .24871826 .6259918 .24871826 .6230011 .24871826 .6139984 .24871826 .61299136 .24272156 .61099246 .2387085 .5649872 .08258057 .42999269 .007507324 .32998658 .007507324 .22399903 .007507324 .13198853 .07556152 .13198853 .21769715 .13198853 .24972534 .14199829 .4238739 .25498963 .5549927 .30999757 .6190491 .4039917 .6750946 .49899293 .6750946 .60899356 .6750946 .6579895 .5840149 .6579895 .48191834 .6579895 .4559021 .6549988 .43388368 .6549988 .42988587 .6549988 .42086793 .6649933 .42086793 .66799929 .42086793 .67900088 .42086793 .6799927 .421875 .6839905 .43989564L.746994 .6950989Z"/>
<path id="font_2_34" d="M.651001 .18289185C.651001 .26983644 .56900027 .34480287 .45799256 .35679627 .5549927 .3757782 .6239929 .43974305 .6239929 .51368716 .6239929 .6006317 .5319977 .6826172 .4019928 .6826172H.035995485V.6516113H.05999756C.13699341 .6516113 .13899231 .64060977 .13899231 .6046295V.07795715C.13899231 .041992189 .13699341 .0309906 .05999756 .0309906H.035995485V0H.42799378C.5609894-.0002593994 .651001 .08874512 .651001 .18273926V.18289185M.5269928 .5136719C.5269928 .44970704 .47799684 .36573792 .36698915 .36573792H.22200012V.6116333C.22200012 .64460757 .22399903 .6516113 .2709961 .6516113H.394989C.49198915 .65174868 .5269928 .56674197 .5269928 .51374819V.5136719M.5509949 .18386841C.5509949 .1129303 .49899293 .0309906 .3959961 .0309906H.2709961C.22399903 .0309906 .22200012 .037994386 .22200012 .07095337V.34375H.4099884C.5089874 .34399415 .5509949 .25099183 .5509949 .18399048V.18386841Z"/>
<path id="font_2_46" d="M.70700076 .33580018C.70700076 .52568057 .57199099 .6826172 .40098573 .6826172H.034988405V.6516113H.05899048C.13598633 .6516113 .13798523 .64060977 .13798523 .6046295V.07795715C.13798523 .041992189 .13598633 .0309906 .05899048 .0309906H.034988405V0H.40098573C.56900027 0 .70700076 .1479187 .70700076 .33580018M.6069946 .33580018C.6069946 .22486878 .58799746 .16490174 .5519867 .11593628 .5319977 .08895874 .47499085 .0309906 .37399293 .0309906H.272995C.22599793 .0309906 .22399903 .037994386 .22399903 .07096863V.6116333C.22399903 .64460757 .22599793 .6516113 .272995 .6516113H.37298585C.43499757 .6516113 .5039978 .6296234 .5549927 .55867007 .59799197 .49969483 .6069946 .41375733 .6069946 .33580018Z"/>
</defs>
<path transform="matrix(1.00006,0,0,-1.00005,58.79238,256.92906)" stroke-width=".3985" stroke-linecap="butt" stroke-miterlimit="10" stroke-linejoin="miter" fill="none" stroke="#a6a6a6" d="M-56.69362-56.69362H255.12128M-56.69362-28.3468H255.12128M-56.69362 0H255.12128M-56.69362 28.3468H255.12128M-56.69362 56.69362H255.12128M-56.69362 85.04042H255.12128M-56.69362 113.38724H255.12128M-56.69362 141.73404H255.12128M-56.69362 170.08086H255.12128M-56.69362 198.42766H255.12128M-56.69362 226.77448H255.12128M-56.69362 255.11133H255.12128M-56.69362-56.69362V255.12128M-28.3468-56.69362V255.12128M0-56.69362V255.12128M28.3468-56.69362V255.12128M56.69362-56.69362V255.12128M85.04042-56.69362V255.12128M113.38724-56.69362V255.12128M141.73404-56.69362V255.12128M170.08086-56.69362V255.12128M198.42766-56.69362V255.12128M226.77448-56.69362V255.12128M255.11133-56.69362V255.12128M255.12128 255.12128"/>
<path transform="matrix(1.00006,0,0,-1.00005,58.79238,256.92906)" stroke-width=".79701" stroke-linecap="butt" stroke-miterlimit="10" stroke-linejoin="miter" fill="none" stroke="#ff0000" d="M-28.3468 0H225.97747"/>
<path transform="matrix(1.00006,0,0,-1.00005,285.18193,256.92906)" stroke-width=".79701" stroke-linecap="round" stroke-linejoin="round" fill="none" stroke="#ff0000" d="M-2.55046 3.11095C-2.0845 1.24435-1.04614 .36295 0 0-1.04614-.36295-2.0845-1.24435-2.55046-3.11095"/>
<use data-text="x" xlink:href="#font_1_3" transform="matrix(11.955917,0,0,-11.955797,289.30024,259.50318)"/>
<path transform="matrix(1.00006,0,0,-1.00005,58.79238,256.92906)" stroke-width=".79701" stroke-linecap="butt" stroke-miterlimit="10" stroke-linejoin="miter" fill="none" stroke="#ff0000" d="M0-56.69362V225.97747"/>
<path transform="matrix(0,-1.00005,-1.00006,-0,58.79238,30.541779)" stroke-width=".79701" stroke-linecap="round" stroke-linejoin="round" fill="none" stroke="#ff0000" d="M-2.55046 3.11095C-2.0845 1.24435-1.04614 .36295 0 0-1.04614-.36295-2.0845-1.24435-2.55046-3.11095"/>
<use data-text="y" xlink:href="#font_1_4" transform="matrix(11.955917,0,0,-11.955797,55.724199,24.099427)"/>
<use data-text="A" xlink:href="#font_1_1" transform="matrix(11.955917,0,0,-11.955797,74.24831,204.31742)"/>
<use data-text="C" xlink:href="#font_1_2" transform="matrix(11.955917,0,0,-11.955797,201.58695,147.62158)"/>
<path transform="matrix(1.00006,0,0,-1.00005,58.79238,256.92906)" stroke-width=".3985" stroke-linecap="butt" stroke-miterlimit="10" stroke-linejoin="miter" fill="none" stroke="#000000" d="M28.3468 56.69362 106.76521 135.11203"/>
<path transform="matrix(.70714238,-.7071353,-.70714238,-.7071353,165.56398,121.81029)" d="M8.54343 0C7.49426 .25244 2.88243 1.68294 0 3.23965V-3.23965C2.88243-1.68294 7.49426-.25244 8.54343 0Z"/>
<path transform="matrix(.70714238,-.7071353,-.70714238,-.7071353,165.56398,121.81029)" stroke-width=".3985" stroke-linecap="butt" stroke-miterlimit="10" stroke-linejoin="miter" fill="none" stroke="#000000" d="M8.54343 0C7.49426 .25244 2.88243 1.68294 0 3.23965V-3.23965C2.88243-1.68294 7.49426-.25244 8.54343 0Z"/>
<path transform="matrix(1.00006,0,0,-1.00005,58.79238,256.92906)" stroke-width=".3985" stroke-linecap="butt" stroke-miterlimit="10" stroke-linejoin="miter" fill="none" stroke="#ff0000" d="M56.69362 28.3468 135.11203 106.76521"/>
<path transform="matrix(.70714238,-.7071353,-.70714238,-.7071353,193.9125,150.15851)" d="M8.54343 0C7.49426 .25244 2.88243 1.68294 0 3.23965V-3.23965C2.88243-1.68294 7.49426-.25244 8.54343 0Z" fill="#ff0000"/>
<path transform="matrix(.70714238,-.7071353,-.70714238,-.7071353,193.9125,150.15851)" stroke-width=".3985" stroke-linecap="butt" stroke-miterlimit="10" stroke-linejoin="miter" fill="none" stroke="#ff0000" d="M8.54343 0C7.49426 .25244 2.88243 1.68294 0 3.23965V-3.23965C2.88243-1.68294 7.49426-.25244 8.54343 0Z"/>
<path transform="matrix(1.00006,0,0,-1.00005,58.79238,256.92906)" stroke-width=".79701" stroke-linecap="butt" stroke-miterlimit="10" stroke-linejoin="miter" fill="none" stroke="#000000" d="M28.3468 56.69362 113.38724 141.73404"/>
<use data-text="B" xlink:href="#font_2_34" transform="matrix(9.963197,0,0,-9.963098,175.9054,118.59013)"/>
<path transform="matrix(1.00006,0,0,-1.00005,58.79238,256.92906)" stroke-width=".79701" stroke-linecap="butt" stroke-miterlimit="10" stroke-linejoin="miter" fill="none" stroke="#ff0000" d="M141.73404 113.38724 56.69362 28.3468"/>
<use data-text="D" xlink:href="#font_2_46" transform="matrix(9.963197,0,0,-9.963098,104.1581,231.9828)" fill="#ff0000"/>
</svg>
