<svg xmlns="http://www.w3.org/2000/svg" xmlns:xlink="http://www.w3.org/1999/xlink" xmlns:inkscape="http://www.inkscape.org/namespaces/inkscape" version="1.1" width="198" height="183" viewBox="0 0 198 183">
<defs>
<path id="font_1_5" d="M.42599488 .005508423C.59799197 .07449341 .7259979 .25660707 .7259979 .43780519 .7259979 .6029968 .6179962 .70410159 .47799684 .70410159 .2639923 .70410159 .04798889 .47384645 .04798889 .24258423 .04798889 .085494998 .1519928-.021484375 .29699708-.021484375 .33099366-.021484375 .3639984-.016494751 .3959961-.0064849855 .3899994-.06640625 .3899994-.07141113 .3899994-.09037781 .3899994-.11933899 .3899994-.19433594 .46998597-.19433594 .58898928-.19433594 .6329956-.0074920656 .6329956-.0014953613 .6329956 .004501343 .6289978 .008514404 .6239929 .008514404 .6179962 .008514404 .6159973 .0035095216 .61299136-.0074920656 .59098818-.07040405 .5389862-.1063385 .49499513-.1063385 .44400025-.1063385 .43099977-.07141113 .42599488 .005508423M.24598694 .010513306C.16699219 .037506105 .1289978 .1204834 .1289978 .21255493 .1289978 .28263856 .15499878 .41578675 .22099304 .51690676 .29499818 .6310272 .3939972 .6820984 .47200013 .6820984 .57598879 .6820984 .6459961 .59799197 .6459961 .46784974 .6459961 .39375306 .61099246 .1454773 .4229889 .035507204 .41799928 .08648682 .4039917 .14648438 .33799745 .14648438 .28399659 .14648438 .23799134 .09248352 .23799134 .043502809 .23799134 .03250122 .24198914 .017501831 .24598694 .010513306M.397995 .022506714C.3619995 .006500244 .33099366 .00050354006 .30299378 .00050354006 .29299928 .00050354006 .2579956 .00050354006 .2579956 .04449463 .2579956 .08049011 .29299928 .1264801 .33799745 .1264801 .3880005 .1264801 .39898683 .09248352 .39898683 .042495729 .39898683 .036499025 .39898683 .028503418 .397995 .022506714Z"/>
<path id="font_1_4" d="M.29599 .3177948H.46398927C.60198977 .3177948 .73999026 .41973878 .73999026 .53367617 .73999026 .6116333 .673996 .6826172 .5479889 .6826172H.23899842C.21998596 .6826172 .21099854 .6826172 .21099854 .66360476 .21099854 .6536102 .21998596 .6536102 .23498535 .6536102 .29599 .6536102 .29599 .6456146 .29599 .63461306 .29599 .63261416 .29599 .62661746 .2919922 .6116333L.15699768 .07395935C.147995 .038986207 .1459961 .0289917 .07598877 .0289917 .056991579 .0289917 .04699707 .0289917 .04699707 .010986328 .04699707 0 .055999757 0 .06199646 0 .08099365 0 .100997928 .0019989014 .11999512 .0019989014H.23699951C.2559967 .0019989014 .2769928 0 .29599 0 .3039856 0 .31498719 0 .31498719 .018997193 .31498719 .0289917 .30599977 .0289917 .29100038 .0289917 .23098755 .0289917 .22999573 .035980226 .22999573 .04597473 .22999573 .050979616 .23098755 .05796814 .23199463 .06297302L.29599 .3177948M.36799623 .614624C.3769989 .6516113 .3809967 .6536102 .41999818 .6536102H.5189972C.59399417 .6536102 .6559906 .6296234 .6559906 .55467227 .6559906 .5286865 .6429901 .4437256 .5970001 .39775086 .5799866 .37976075 .5319977 .34179688 .44099427 .34179688H.2999878L.36799623 .614624Z"/>
<path id="font_1_3" d="M.9079895 .6096344C.9169922 .6436157 .9189911 .6536102 .98999026 .6536102 1.0089874 .6536102 1.0179901 .6536102 1.0179901 .6726074 1.0179901 .6826172 1.0110016 .6826172 .99198916 .6826172H.871994C.8470001 .6826172 .84599307 .6816101 .83499148 .66560366L.46998597 .08895874 .394989 .660614C.3919983 .6826172 .3909912 .6826172 .36499024 .6826172H.24099732C.22200012 .6826172 .21299744 .6826172 .21299744 .66360476 .21299744 .6536102 .22200012 .6536102 .23699951 .6536102 .2979889 .6536102 .2979889 .6456146 .2979889 .6346283 .2979889 .6326294 .2979889 .6266327 .2939911 .6116333L.1659851 .10194397C.1539917 .053970338 .1309967 .03199768 .06399536 .0289917 .06098938 .0289917 .04899597 .027999878 .04899597 .010986328 .04899597 0 .057998659 0 .06199646 0 .08198547 0 .1329956 .0019989014 .15299988 .0019989014H.20098877C.21499634 .0019989014 .23199463 0 .24598694 0 .25299073 0 .2639923 0 .2639923 .018997193 .2639923 .027999878 .2539978 .0289917 .25 .0289917 .21699524 .02999878 .18499756 .035995485 .18499756 .07196045 .18499756 .081954959 .18499756 .082962039 .18899536 .096954349L.32699586 .6476135H.32798768L.41099549 .026992798C.4139862 .0029907227 .4149933 0 .42399598 0 .43499757 0 .43998719 .0079956059 .44499208 .016998291L.8470001 .6526184H.84799197L.7029877 .07395935C.69400027 .038986207 .69200137 .0289917 .621994 .0289917 .6029968 .0289917 .59298709 .0289917 .59298709 .010986328 .59298709 0 .60198977 0 .60798647 0 .625 0 .644989 .0019989014 .6619873 .0019989014H.7799988C.7969971 .0019989014 .81799319 0 .83499148 0 .84298709 0 .85398867 0 .85398867 .018997193 .85398867 .0289917 .8450012 .0289917 .8299866 .0289917 .7689972 .0289917 .7689972 .036987306 .7689972 .04698181 .7689972 .047973634 .7689972 .054977418 .7709961 .06297302L.9079895 .6096344Z"/>
<path id="font_1_1" d="M.74598696 .6950989C.74598696 .70410159 .7389984 .70410159 .7369995 .70410159 .7350006 .70410159 .73098757 .70410159 .72299197 .6940918L.6539917 .61099246C.6489868 .6190033 .6289978 .65405276 .58999636 .6770935 .5469971 .70410159 .5039978 .70410159 .4889984 .70410159 .2749939 .70410159 .049987794 .48580934 .049987794 .24949646 .049987794 .084503177 .1639862-.021484375 .31399537-.021484375 .38598634-.021484375 .47698976 .0025024415 .5269928 .06550598 .5379944 .027511597 .55999758 .00050354006 .5669861 .00050354006 .57199099 .00050354006 .57299807 .0035095216 .57398989 .0035095216 .57499697 .005508423 .58299258 .040512086 .58799746 .058502199L.60398867 .12249756C.6119995 .15550232 .6159973 .16950989 .6230011 .19950867 .6329956 .23750305 .6349945 .24050904 .6899872 .24150086 .69400027 .24150086 .70599368 .24150086 .70599368 .26049806 .70599368 .2705078 .69599917 .2705078 .69299319 .2705078 .6759949 .2705078 .6569977 .26849366 .6389923 .26849366H.58499148C.54299929 .26849366 .49899293 .2705078 .45799256 .2705078 .44898988 .2705078 .43699647 .2705078 .43699647 .25250245 .43699647 .24249268 .44499208 .24249268 .44499208 .24150086H.46998597C.548996 .24150086 .548996 .23350525 .548996 .21850586 .548996 .21749878 .5299988 .116500858 .5109863 .086502078 .47299195 .03050232 .3939972 .007507324 .33499146 .007507324 .2579956 .007507324 .1329956 .04750061 .1329956 .22050476 .1329956 .28752137 .15699768 .44075013 .2539978 .5539093 .31698609 .62602236 .4099884 .6750946 .49798585 .6750946 .6159973 .6750946 .6579895 .5739441 .6579895 .48181153 .6579895 .4657898 .6539917 .4437561 .6539917 .42973329 .6539917 .42071534 .6639862 .42071534 .6669922 .42071534 .6779938 .42071534 .67900088 .4217224 .68299868 .43974305L.74598696 .6950989Z"/>
<path id="font_1_2" d="M.7480011 .6096344C.7569885 .6436157 .7589874 .6536102 .8299866 .6536102 .84799197 .6536102 .8580017 .6536102 .8580017 .6716156 .8580017 .6826172 .848999 .6826172 .84298709 .6826172 .82499697 .6826172 .80400088 .680603 .7849884 .680603H.6669922C.647995 .680603 .6269989 .6826172 .60798647 .6826172 .6009979 .6826172 .58898928 .6826172 .58898928 .66360476 .58898928 .6536102 .59599307 .6536102 .61499026 .6536102 .6749878 .6536102 .6749878 .6456146 .6749878 .6346283 .6749878 .6326294 .6749878 .6266327 .67099 .6116333L.6100006 .369812H.30799867L.36799623 .6096344C.3769989 .6436157 .3789978 .6536102 .44999696 .6536102 .46798707 .6536102 .47799684 .6536102 .47799684 .6716156 .47799684 .6826172 .46899415 .6826172 .46299745 .6826172 .44499208 .6826172 .42399598 .680603 .40499879 .680603H.2869873C.2679901 .680603 .24699402 .6826172 .22799683 .6826172 .22099304 .6826172 .20899964 .6826172 .20899964 .66360476 .20899964 .6536102 .21598816 .6536102 .23498535 .6536102 .29499818 .6536102 .29499818 .6456146 .29499818 .6346283 .29499818 .6326294 .29499818 .6266327 .29100038 .6116333L.1559906 .07395935C.14698792 .038986207 .14498902 .0289917 .07598877 .0289917 .052993776 .0289917 .04598999 .0289917 .04598999 .009994507 .04598999 0 .056991579 0 .05999756 0 .07798767 0 .09899902 .0019989014 .117996219 .0019989014H.23599243C.25498963 .0019989014 .27598573 0 .29499818 0 .30299378 0 .31399537 0 .31399537 .018997193 .31399537 .0289917 .30499269 .0289917 .2899933 .0289917 .22898865 .0289917 .22898865 .036987306 .22898865 .04698181 .22898865 .04798889 .22898865 .054977418 .23098755 .06297302L.2999878 .3408203H.6029968C.58599856 .27485658 .5349884 .065963748 .5329895 .05996704 .5219879 .02999878 .5059967 .02999878 .44699098 .0289917 .43499757 .0289917 .42599488 .0289917 .42599488 .009994507 .42599488 0 .43699647 0 .43998719 0 .45799256 0 .47898866 .0019989014 .49798585 .0019989014H.6159973C.6349945 .0019989014 .6559906 0 .6749878 0 .68299868 0 .69400027 0 .69400027 .018997193 .69400027 .0289917 .68499758 .0289917 .66999819 .0289917 .60899356 .0289917 .60899356 .036987306 .60899356 .04698181 .60899356 .04798889 .60899356 .054977418 .61099246 .06297302L.7480011 .6096344Z"/>
<path id="font_2_80" d="M.72099307 .3387909C.72099307 .5429535 .56999209 .7050781 .3880005 .7050781 .20899964 .7050781 .055999757 .5449524 .055999757 .3387909 .055999757 .13363648 .20999146-.022460938 .3880005-.022460938 .56999209-.022460938 .72099307 .13664246 .72099307 .3387909M.6179962 .35281373C.6179962 .08760071 .48098756 .0035247803 .3889923 .0035247803 .29299928 .0035247803 .15899658 .09159851 .15899658 .35281373 .15899658 .6120148 .30499269 .68006899 .3880005 .68006899 .47499085 .68006899 .6179962 .6090088 .6179962 .35281373Z"/>
</defs>
<use data-text="Q" xlink:href="#font_1_5" transform="matrix(11.95556,0,0,-11.956157,31.217495,179.01929)"/>
<use data-text="P" xlink:href="#font_1_4" transform="matrix(11.95556,0,0,-11.956157,110.64088,143.32743)"/>
<use data-text="M" xlink:href="#font_1_3" transform="matrix(11.95556,0,0,-11.956157,1.2185898,10.086761)"/>
<use data-text="G" xlink:href="#font_1_1" transform="matrix(11.95556,0,0,-11.956157,158.80033,95.13457)"/>
<use data-text="H" xlink:href="#font_1_2" transform="matrix(11.95556,0,0,-11.956157,90.07226,44.1055)"/>
<path transform="matrix(1.00003,0,0,-1.00008,-12.337814,204.44532)" stroke-width=".3985" stroke-linecap="butt" stroke-miterlimit="10" stroke-linejoin="miter" fill="none" stroke="#000000" d="M56.69362 28.3468 189.73291 81.56259"/>
<path transform="matrix(.92846789,-.3713997,-.37138114,-.92851427,177.4008,122.87621)" d="M8.54343 0C7.49426 .25244 2.88243 1.68294 0 3.23965V-3.23965C2.88243-1.68294 7.49426-.25244 8.54343 0Z"/>
<path transform="matrix(.92846789,-.3713997,-.37138114,-.92851427,177.4008,122.87621)" stroke-width=".3985" stroke-linecap="butt" stroke-miterlimit="10" stroke-linejoin="miter" fill="none" stroke="#000000" d="M8.54343 0C7.49426 .25244 2.88243 1.68294 0 3.23965V-3.23965C2.88243-1.68294 7.49426-.25244 8.54343 0Z"/>
<path transform="matrix(1.00003,0,0,-1.00008,-12.337814,204.44532)" stroke-width=".3985" stroke-linecap="butt" stroke-miterlimit="10" stroke-linejoin="miter" fill="none" stroke="#000000" d="M198.42766 85.04042 65.38837 31.82463"/>
<path transform="matrix(-.92846789,.3713997,.37138114,.92851427,53.052515,172.61812)" d="M8.54343 0C7.49426 .25244 2.88243 1.68294 0 3.23965V-3.23965C2.88243-1.68294 7.49426-.25244 8.54343 0Z"/>
<path transform="matrix(-.92846789,.3713997,.37138114,.92851427,53.052515,172.61812)" stroke-width=".3985" stroke-linecap="butt" stroke-miterlimit="10" stroke-linejoin="miter" fill="none" stroke="#000000" d="M8.54343 0C7.49426 .25244 2.88243 1.68294 0 3.23965V-3.23965C2.88243-1.68294 7.49426-.25244 8.54343 0Z"/>
<path transform="matrix(1.00003,0,0,-1.00008,-12.337814,204.44532)" stroke-width=".3985" stroke-linecap="butt" stroke-miterlimit="10" stroke-linejoin="miter" fill="none" stroke="#000000" d="M170.08086 113.38724 36.37694 193.60958"/>
<path transform="matrix(-.8574957,-.5145211,-.51449546,.8575386,24.040219,10.820251)" d="M8.54343 0C7.49426 .25244 2.88243 1.68294 0 3.23965V-3.23965C2.88243-1.68294 7.49426-.25244 8.54343 0Z"/>
<path transform="matrix(-.8574957,-.5145211,-.51449546,.8575386,24.040219,10.820251)" stroke-width=".3985" stroke-linecap="butt" stroke-miterlimit="10" stroke-linejoin="miter" fill="none" stroke="#000000" d="M8.54343 0C7.49426 .25244 2.88243 1.68294 0 3.23965V-3.23965C2.88243-1.68294 7.49426-.25244 8.54343 0Z"/>
<path transform="matrix(1.00003,0,0,-1.00008,-12.337814,204.44532)" stroke-width=".3985" stroke-linecap="butt" stroke-miterlimit="10" stroke-linejoin="miter" fill="none" stroke="#000000" d="M170.08086 113.38724 107.24396 151.08936"/>
<path transform="matrix(-.8574957,-.5145211,-.51449546,.8575386,94.90936,53.343873)" d="M8.54343 0C7.49426 .25244 2.88243 1.68294 0 3.23965V-3.23965C2.88243-1.68294 7.49426-.25244 8.54343 0Z"/>
<path transform="matrix(-.8574957,-.5145211,-.51449546,.8575386,94.90936,53.343873)" stroke-width=".3985" stroke-linecap="butt" stroke-miterlimit="10" stroke-linejoin="miter" fill="none" stroke="#000000" d="M8.54343 0C7.49426 .25244 2.88243 1.68294 0 3.23965V-3.23965C2.88243-1.68294 7.49426-.25244 8.54343 0Z"/>
<path transform="matrix(1.00003,0,0,-1.00008,-12.337814,204.44532)" stroke-width=".79701" stroke-linecap="butt" stroke-miterlimit="10" stroke-linejoin="miter" fill="none" stroke="#000000" d="M56.69362 28.3468 198.42766 85.04042"/>
<use data-text="O" xlink:href="#font_2_80" transform="matrix(9.962899,0,0,-9.963397,189.81526,122.80078)"/>
</svg>
