<svg xmlns="http://www.w3.org/2000/svg" xmlns:xlink="http://www.w3.org/1999/xlink" xmlns:inkscape="http://www.inkscape.org/namespaces/inkscape" version="1.1" width="203" height="68" viewBox="0 0 203 68">
<path transform="matrix(1.00002,0,0,-1.00009,16.467957,58.69584)" d="M25.51195 0V56.69362H31.18123V0ZM31.18123 56.69362" fill="#bf8040"/>
<path transform="matrix(1.00002,0,0,-1.00009,16.467957,58.69584)" stroke-width=".79701" stroke-linecap="butt" stroke-miterlimit="10" stroke-linejoin="miter" fill="none" stroke="#000000" d="M25.51195 0V56.69362H31.18123V0ZM31.18123 56.69362"/>
<path transform="matrix(1.00002,0,0,-1.00009,16.467957,58.69584)" d="M82.20557 0V56.69362H87.87485V0ZM87.87485 56.69362" fill="#bf8040"/>
<path transform="matrix(1.00002,0,0,-1.00009,16.467957,58.69584)" stroke-width=".79701" stroke-linecap="butt" stroke-miterlimit="10" stroke-linejoin="miter" fill="none" stroke="#000000" d="M82.20557 0V56.69362H87.87485V0ZM87.87485 56.69362"/>
<path transform="matrix(1.00002,0,0,-1.00009,16.467957,58.69584)" d="M138.89919 0V56.69362H144.56847V0ZM144.56847 56.69362" fill="#bf8040"/>
<path transform="matrix(1.00002,0,0,-1.00009,16.467957,58.69584)" stroke-width=".79701" stroke-linecap="butt" stroke-miterlimit="10" stroke-linejoin="miter" fill="none" stroke="#000000" d="M138.89919 0V56.69362H144.56847V0ZM144.56847 56.69362"/>
<path transform="matrix(1.00002,0,0,-1.00009,16.467957,58.69584)" d="M-14.17339-7.08669V0H184.25424V-7.08669ZM184.25424 0" fill="#bf8040"/>
<path transform="matrix(1.00002,0,0,-1.00009,16.467957,58.69584)" stroke-width=".79701" stroke-linecap="butt" stroke-miterlimit="10" stroke-linejoin="miter" fill="none" stroke="#000000" d="M-14.17339-7.08669V0H184.25424V-7.08669ZM184.25424 0"/>
</svg>
