<svg xmlns="http://www.w3.org/2000/svg" xmlns:xlink="http://www.w3.org/1999/xlink" xmlns:inkscape="http://www.inkscape.org/namespaces/inkscape" version="1.1" width="456" height="202" viewBox="0 0 456 202">
<path transform="matrix(1.00005,0,0,-1,15.269859,200.424)" d="M0 0V113.38724H106.30052L212.60106 198.42766 318.9016 113.38724H340.1617 425.20213V0H0" fill="#ffffff"/>
<path transform="matrix(1.00005,0,0,-1,15.269859,200.424)" stroke-width=".79701" stroke-linecap="butt" stroke-miterlimit="10" stroke-linejoin="miter" fill="none" stroke="#000000" d="M0 0V113.38724H106.30052L212.60106 198.42766 318.9016 113.38724H340.1617 425.20213V0H0"/>
<path transform="matrix(1.00005,0,0,-1,15.269859,200.424)" stroke-width=".3985" stroke-linecap="butt" stroke-miterlimit="10" stroke-linejoin="miter" fill="none" stroke="#000000" d="M-14.17339 56.69362H14.17339"/>
<path transform="matrix(1.00005,0,0,-1,15.269859,200.424)" stroke-width=".3985" stroke-linecap="butt" stroke-miterlimit="10" stroke-linejoin="miter" fill="none" stroke="#000000" d="M411.02873 56.69362H439.37553"/>
<path transform="matrix(1.00005,0,0,-1,15.269859,200.424)" stroke-width=".3985" stroke-linecap="butt" stroke-miterlimit="10" stroke-linejoin="miter" fill="none" stroke="#000000" d="M127.56062 141.73404 255.12128 155.90744"/>
<path transform="matrix(1.00005,0,0,-1,15.269859,200.424)" stroke-width=".3985" stroke-linecap="butt" stroke-miterlimit="10" stroke-linejoin="miter" fill="none" stroke="#000000" d="M127.56062 155.90744 255.12128 141.73404"/>
<path transform="matrix(1.00005,0,0,-1,15.269859,200.424)" stroke-width=".3985" stroke-linecap="butt" stroke-miterlimit="10" stroke-linejoin="miter" fill="none" stroke="#000000" d="M411.02873 56.69362H439.37553"/>
<path transform="matrix(1.00005,0,0,-1,15.269859,200.424)" d="M106.30052 113.38724H318.9016"/>
<path transform="matrix(1.00005,0,0,-1,15.269859,200.424)" stroke-width=".3985" stroke-linecap="butt" stroke-dasharray="2.98883,2.98883" stroke-miterlimit="10" stroke-linejoin="miter" fill="none" stroke="#000000" d="M106.30052 113.38724H318.9016"/>
</svg>
